<svg xmlns="http://www.w3.org/2000/svg" viewBox="0 0 24 24" fill="none" stroke="#F59E0B" stroke-width="2" stroke-linecap="round" stroke-linejoin="round">
    <path d="M9 18h6"></path>
    <path d="M10 22h4"></path>
    <path d="M12 2v1"></path>
    <path d="M12 7v1"></path>
    <path d="M18.36 5.64l-.7.7"></path>
    <path d="M15.54 8.46l-.7.7"></path>
    <path d="M5.64 5.64l.7.7"></path>
    <path d="M8.46 8.46l.7.7"></path>
    <path d="M22 12h-1"></path>
    <path d="M17 12h-1"></path>
    <path d="M2 12h1"></path>
    <path d="M7 12h1"></path>
    <path d="M12 11c-2.76 0-5 2.24-5 5s2.24 5 5 5 5-2.24 5-5-2.24-5-5-5z"></path>
</svg>
